<?xml version="1.0" encoding="UTF-8" standalone="no"?>
<svg
   xmlns:dc="http://purl.org/dc/elements/1.1/"
   xmlns:cc="http://creativecommons.org/ns#"
   xmlns:rdf="http://www.w3.org/1999/02/22-rdf-syntax-ns#"
   xmlns:svg="http://www.w3.org/2000/svg"
   xmlns="http://www.w3.org/2000/svg"
   xmlns:sodipodi="http://sodipodi.sourceforge.net/DTD/sodipodi-0.dtd"
   xmlns:inkscape="http://www.inkscape.org/namespaces/inkscape"
   height="512px"
   id="Layer_1"
   style="enable-background:new 0 0 512 512;"
   version="1.1"
   viewBox="0 0 512 512"
   width="512px"
   xml:space="preserve"
   inkscape:version="0.48.4 r9939"
   inkscape:export-xdpi="7.0300002"
   inkscape:export-ydpi="7.0300002"><metadata
     id="metadata2997"><rdf:RDF><cc:Work
         rdf:about=""><dc:format>image/svg+xml</dc:format><dc:type
           rdf:resource="http://purl.org/dc/dcmitype/StillImage" /><dc:title></dc:title></cc:Work></rdf:RDF></metadata><defs
     id="defs2995" /><sodipodi:namedview
     pagecolor="#ffffff"
     bordercolor="#666666"
     borderopacity="1"
     objecttolerance="10"
     gridtolerance="10"
     guidetolerance="10"
     inkscape:pageopacity="0"
     inkscape:pageshadow="2"
     inkscape:window-width="753"
     inkscape:window-height="480"
     id="namedview2993"
     showgrid="false"
     inkscape:zoom="0.4609375"
     inkscape:cx="208.18518"
     inkscape:cy="256"
     inkscape:window-x="114"
     inkscape:window-y="164"
     inkscape:window-maximized="0"
     inkscape:current-layer="Layer_1" /><path
     d="M384,352l96-109.3h-66.1C407.1,141.8,325,64,223.2,64C117.8,64,32,150.1,32,256s85.8,192,191.2,192  c43.1,0,83.8-14.1,117.7-40.7l7.5-5.9l-43.2-46.2l-6.2,4.6c-22.1,16.3-48.3,24.9-75.8,24.9C152.6,384.7,95.1,327,95.1,256  c0-71,57.5-128.7,128.1-128.7c66.4,0,120.7,50,127.4,115.3h-74.1L384,352z"
     id="path2991"
     style="fill:#c0c0c0;fill-opacity:1;opacity:0.75000000000000000;stroke:#4f5a64;stroke-opacity:1;stroke-width:5;stroke-miterlimit:4;stroke-dasharray:none" /></svg>
