<?xml version="1.0" encoding="UTF-8" standalone="no"?>
<!-- Created with Inkscape (http://www.inkscape.org/) -->

<svg
   xmlns:dc="http://purl.org/dc/elements/1.1/"
   xmlns:cc="http://creativecommons.org/ns#"
   xmlns:rdf="http://www.w3.org/1999/02/22-rdf-syntax-ns#"
   xmlns:svg="http://www.w3.org/2000/svg"
   xmlns="http://www.w3.org/2000/svg"
   xmlns:xlink="http://www.w3.org/1999/xlink"
   xmlns:sodipodi="http://sodipodi.sourceforge.net/DTD/sodipodi-0.dtd"
   xmlns:inkscape="http://www.inkscape.org/namespaces/inkscape"
   width="512"
   height="512"
   id="svg2"
   version="1.1"
   inkscape:version="0.48.4 r9939"
   inkscape:export-xdpi="7.0300002"
   inkscape:export-ydpi="7.0300002">
  <sodipodi:namedview
     id="base"
     pagecolor="#ffffff"
     bordercolor="#666666"
     borderopacity="1.0"
     inkscape:pageopacity="0.0"
     inkscape:pageshadow="2"
     inkscape:zoom="0.7"
     inkscape:cx="311.01526"
     inkscape:cy="255.43749"
     inkscape:document-units="px"
     inkscape:current-layer="arrow_x5F_right"
     showgrid="false"
     inkscape:window-width="534"
     inkscape:window-height="383"
     inkscape:window-x="65"
     inkscape:window-y="489"
     inkscape:window-maximized="0" />
  <defs
     id="defs4">
    <clipPath
       id="SVGID_4_">
      <use
         xlink:href="#SVGID_3_"
         overflow="visible"
         id="use28"
         style="overflow:visible"
         x="0"
         y="0"
         width="103.711"
         height="97.837997" />
    </clipPath>
  </defs>
  <metadata
     id="metadata7">
    <rdf:RDF>
      <cc:Work
         rdf:about="">
        <dc:format>image/svg+xml</dc:format>
        <dc:type
           rdf:resource="http://purl.org/dc/dcmitype/StillImage" />
        <dc:title></dc:title>
      </cc:Work>
    </rdf:RDF>
  </metadata>
  <g
     inkscape:label="Layer 2"
     id="layer2"
     inkscape:groupmode="layer">
    <g
       id="arrow_x5F_right"
       transform="matrix(-15.835654,0,0,15.835654,510.10002,3.1920458)">
      <g
         transform="matrix(-0.53676343,0,0,0.53676343,24.327564,-0.26472201)"
         style="fill:none;stroke:none"
         id="Icons with numbers">
        <g
           style="fill:#000000"
           id="Group"
           transform="translate(-96,-96)" />
      </g>
      <g
         id="g22"
         transform="matrix(-0.65289163,0,0,0.65289163,50.058786,-16.274331)">
        <defs
           id="defs24">
          <rect
             id="SVGID_3_"
             x="30.174999"
             y="34.617001"
             width="43.841999"
             height="29.524" />
        </defs>
        <clipPath
           id="clipPath3030">
          <use
             xlink:href="#SVGID_3_"
             overflow="visible"
             id="use3032"
             style="overflow:visible"
             x="0"
             y="0"
             width="103.711"
             height="97.837997" />
        </clipPath>
        <path
           clip-path="url(#SVGID_4_)"
           d="m 64.296,60.685 h 7.033 c 0.293,0 0.525,0.097 0.525,0.214 v 1.029 c 0,0.118 -0.232,0.208 -0.525,0.208 h -7.033 c -0.292,0 -0.525,-0.09 -0.525,-0.208 v -1.029 c 0,-0.118 0.233,-0.214 0.525,-0.214 M 57.071,42.649 c 4.068,0 7.373,3.362 7.373,7.5 0,4.139 -3.305,7.492 -7.373,7.492 -4.07,0 -7.375,-3.354 -7.375,-7.492 0,-4.137 3.305,-7.5 7.375,-7.5 m 0,-1.154 c -4.699,0 -8.515,3.877 -8.515,8.654 0,4.778 3.815,8.654 8.515,8.654 4.698,0 8.514,-3.876 8.514,-8.654 0,-4.777 -3.815,-8.654 -8.514,-8.654 m 0,-0.829 c 5.148,0 9.328,4.249 9.328,9.483 0,5.235 -4.18,9.483 -9.328,9.483 -5.149,0 -9.328,-4.248 -9.328,-9.483 0,-5.234 4.179,-9.483 9.328,-9.483 M 33.573,38.245 h 9.912 c 0.412,0 0.748,0.328 0.748,0.74 v 3.599 c 0,0.411 -0.336,0.739 -0.748,0.739 h -9.912 c -0.412,0 -0.74,-0.328 -0.74,-0.739 v -3.599 c 0,-0.412 0.328,-0.74 0.74,-0.74 m 27.888,-3.628 c -0.412,0 -0.748,0.328 -0.748,0.74 v 0.696 h -29.14 c -0.776,0 -1.398,0.622 -1.398,1.398 v 25.282 c 0,0.778 0.622,1.407 1.398,1.407 h 41.045 c 0.776,0 1.398,-0.629 1.398,-1.407 V 37.452 c 0,-0.776 -0.622,-1.398 -1.398,-1.398 h -2.267 v -0.696 c 0,-0.412 -0.335,-0.74 -0.747,-0.74 h -8.143 z"
           id="path30"
           inkscape:connector-curvature="0"
           style="fill:#c0c0c0;fill-opacity:1;opacity:0.75000000000000000;stroke:#4f5a64;stroke-opacity:1;stroke-width:0.48360736;stroke-miterlimit:4;stroke-dasharray:none" />
      </g>
    </g>
  </g>
  <g
     transform="translate(0,-540.36218)"
     id="layer1"
     inkscape:groupmode="layer"
     inkscape:label="Layer 1" />
</svg>
